<?xml version="1.0" encoding="UTF-8"?>
<svg id="_图层_1" data-name="图层_1" xmlns="http://www.w3.org/2000/svg" xmlns:rdf="http://www.w3.org/1999/02/22-rdf-syntax-ns#" xmlns:dc="http://purl.org/dc/elements/1.1/" xmlns:cc="http://creativecommons.org/ns#" version="1.1" viewBox="0 0 131.83 76.16">
  <!-- Generator: Adobe Illustrator 29.5.1, SVG Export Plug-In . SVG Version: 2.1.0 Build 141)  -->
  <defs>
    <style>
      .st0 {
        fill: #fff;
      }
    </style>
  </defs>
  <path class="st0" d="M96.51,55.3l9.73-40.4h-20.88l-8.9,36.23c-1.29,7.06-8.88,10.37-14.27,10.45h-14.8l-5.02,14.56h31.09c7.67,0,18.99-3.92,23.04-20.85"/>
  <path class="st0" d="M52.69,41.06L62.5,0h21.48l-11.17,46.71c-2.15,9.02-8.85,11.19-15.05,11.19H8.24c-5.46,0-10.03-2.32-7.55-12.73l4.46-18.63c2.26-9.45,9.29-11.61,14.37-11.61h34.57l-2.78,11.64h-17.65c-2.6,0-4.02.56-4.74,3.59l-2.85,11.89c-1.02,4.27.47,4.57,3.6,4.57h16.17c2.96,0,5.56-.19,6.85-5.55"/>
  <path class="st0" d="M110.95,14.91l-10.11,42.98h20.87l10.11-42.98h-20.87Z"/>
</svg>